<?xml version="1.0" encoding="UTF-8" standalone="no"?>
<!-- Created with Inkscape (http://www.inkscape.org/) -->

<svg
   version="1.1"
   id="svg2"
   width="157.93333"
   height="50.200001"
   viewBox="0 0 157.93333 50.200001"
   sodipodi:docname="mmt.eps"
   xmlns:inkscape="http://www.inkscape.org/namespaces/inkscape"
   xmlns:sodipodi="http://sodipodi.sourceforge.net/DTD/sodipodi-0.dtd"
   xmlns="http://www.w3.org/2000/svg"
   xmlns:svg="http://www.w3.org/2000/svg">
  <defs
     id="defs6" />
  <sodipodi:namedview
     id="namedview4"
     pagecolor="#ffffff"
     bordercolor="#000000"
     borderopacity="0.25"
     inkscape:showpageshadow="2"
     inkscape:pageopacity="0.0"
     inkscape:pagecheckerboard="0"
     inkscape:deskcolor="#d1d1d1" />
  <g
     id="g8"
     inkscape:groupmode="layer"
     inkscape:label="ink_ext_XXXXXX"
     transform="matrix(1.3333333,0,0,-1.3333333,0,50.2)">
    <g
       id="g10"
       transform="scale(0.1)">
      <path
         d="m 778.359,0 c 46.793,0 84.715,38.1523 84.715,85.2148 l -0.015,206.0432 c 0,47.07 -37.946,85.226 -84.735,85.226 H 571.328 c -46.797,0 -84.734,-38.156 -84.734,-85.226 L 486.637,85.2148 C 486.637,38.1641 524.57,0 571.363,0 h 206.996"
         style="fill:#d12e23;fill-opacity:1;fill-rule:nonzero;stroke:none"
         id="path12" />
      <path
         d="m 719.73,176.66 c -7.777,-26.816 5,-53.379 32.333,-42.609 -7.782,-19.297 -21.051,-48.1135 -21.051,-77.9377 0,0 -0.422,-20.207 14.711,-25.1758 0,0 20.718,-5.0977 16.343,13.4453 0,0 -5.843,18.7695 -2.82,34.9336 6.809,36.3476 22.906,71.9216 22.906,71.9216 0,0 31.969,65.891 49.86,96.535 0,0 8.105,15.825 -8.321,15.825 -5.257,0 -8.23,-2.223 -11.988,-6.235 l -44.355,-79.687 c -6.766,-12.285 -13.285,-16.309 -18.301,-16.309 -11.274,0 -9.02,18.301 -7.266,24.559 10.532,41.113 22.789,61.031 24.063,63.902 7.773,17.52 -8.321,19.141 -8.321,19.141 -10.117,2.566 -17.687,-13.949 -17.687,-13.949 L 721.98,218.699 c -5.574,-10.242 -30.242,-49.238 -37.957,-57.734 0,0 -2.293,-3.192 -4.152,-1.777 -0.965,0.734 -0.75,4.375 -0.75,4.375 1.008,25.312 14.797,72.675 14.797,72.675 0.242,1.504 0.496,3.012 0.496,4.262 0,7.52 -3.512,12.281 -11.031,13.035 -7.762,0.758 -11.781,-3.008 -18.789,-11.531 -15.547,-19.289 -34.098,-48.117 -42.86,-61.41 -0.996,-1.485 -2.757,-0.996 -2.757,1.015 0,6.008 20.89,70.153 20.89,70.153 0,0 2.457,8.793 -4.711,11.836 0,0 -10.761,6.761 -19.89,-6.653 l -42.383,-57.953 c -3.328,-4.433 -4.977,-2.793 -4.977,-2.793 -1.035,0.528 -0.371,3.828 -0.371,3.828 l 6.684,37.786 c 5.351,29.042 -4.84,30.57 -11.211,31.429 -6.367,0.856 -14.016,-3.941 -14.016,-3.941 -13.246,-6.645 -23.246,-33.11 -23.246,-33.11 0,0 -2.992,-9.41 3.32,-13.043 0,0 2.399,-1.992 7.051,-1.824 9.254,0.34 11.184,17.981 17.949,17.981 1.254,0 1.254,-1.504 1.254,-1.75 l -21.886,-92.102 c 0,0 -2.504,-9.121 5.472,-14.004 10.203,-6.238 16.813,4.133 16.813,4.133 l 7.656,12.371 c 11.684,20.469 32.863,49.817 35.121,49.817 0.75,0 0.996,-0.254 0.996,-0.997 l -7.48,-53.976 c 0,0 -1.617,-8.934 6.285,-11.863 0,0 7.715,-2.707 12.152,0.867 0,0 5.524,3.742 11.031,12.773 4.243,6.965 25.59,32.09 38.618,55.137 1.007,1.504 1.757,0.254 1.504,-1.004 -2.504,-12.023 -4.688,-44.414 -4.981,-52.18 -0.609,-16.035 11.41,-17.488 11.914,-17.488 0,0 9.903,-2.316 19.957,9.492 l 31.238,42.129"
         style="fill:#ffffff;fill-opacity:1;fill-rule:nonzero;stroke:none"
         id="path14" />
      <path
         d="M 82.8438,140.996 H 59.3711 v 52.832 c 0,7.527 -1.2031,13.152 -3.5859,16.863 -2.3868,3.704 -6.4219,5.567 -12.1172,5.567 -4.1446,0 -7.9414,-1.024 -11.3867,-3.074 -3.4571,-2.063 -6.3868,-4.981 -8.8086,-8.77 V 140.996 H 0 v 95.957 h 13.3672 l 8.8242,-12.91 c 1.8945,1.723 4.7734,3.898 7.1016,5.402 2.332,1.504 4.789,2.832 7.3828,3.957 2.5859,1.121 5.3047,2.008 8.1523,2.661 2.8516,0.656 5.7735,0.976 8.7657,0.976 3.4414,0 6.4843,-0.359 9.0898,-1.101 2.625,-0.727 4.9375,-1.797 6.9492,-3.215 2.0117,-1.407 3.7735,-3.102 5.2695,-5.086 1.5,-2 2.8125,-4.246 3.9649,-6.758 1.8398,1.844 3.9258,3.719 6.2617,5.648 2.3281,1.934 4.9024,3.672 7.7227,5.235 2.8203,1.562 5.8945,2.828 9.2344,3.808 3.34,0.981 6.957,1.469 10.875,1.469 5.285,0 9.781,-1.078 13.5,-3.23 3.715,-2.161 6.73,-5.145 9.062,-8.957 2.332,-3.817 4.016,-8.36 5.086,-13.622 1.067,-5.273 1.598,-11.015 1.598,-17.226 v -53.008 h -23.473 v 52.832 c 0,7.527 -1.175,13.152 -3.535,16.863 -2.355,3.704 -6.304,5.567 -11.816,5.567 -4.1447,0 -7.9416,-0.965 -11.4025,-2.891 -3.4453,-1.933 -6.4922,-4.902 -9.1367,-8.953 v -63.418"
         style="fill:#254582;fill-opacity:1;fill-rule:nonzero;stroke:none"
         id="path16" />
      <path
         d="m 219.613,184.609 h -21.058 c -5.633,0 -9.75,-1.328 -12.344,-3.488 -2.582,-2.156 -3.883,-5.183 -3.883,-9.043 0,-3.68 1.102,-6.523 3.285,-8.523 2.184,-1.992 5.524,-3 10,-3 2.711,0 5.282,0.363 7.731,1.086 2.445,0.722 4.703,1.687 6.773,2.918 2.071,1.222 3.91,2.675 5.524,4.375 1.605,1.691 2.929,3.476 3.972,5.351 z m -0.008,-33.046 c -2.71,-2.95 -6.964,-5.704 -11.773,-7.696 -4.805,-1.972 -10.547,-2.969 -17.211,-2.969 -4.664,0 -8.863,0.743 -12.609,2.235 -3.735,1.496 -6.938,3.586 -9.614,6.289 -2.671,2.695 -4.73,5.879 -6.175,9.57 -1.434,3.692 -2.149,7.715 -2.149,12.102 0,17.871 13.821,29.238 35.965,29.238 h 23.391 v 5.301 c 0,3.273 -1.649,5.851 -4.957,7.715 -3.301,1.867 -8.379,2.812 -15.231,2.812 -6.387,0 -12.301,-0.672 -17.726,-2.012 -5.43,-1.328 -8.446,-2.46 -13.11,-4.375 l -2.898,20.024 c 1.722,0.758 3.828,1.558 6.301,2.398 2.468,0.852 5.238,1.625 8.281,2.356 3.051,0.715 6.355,1.316 9.926,1.785 3.558,0.473 7.304,0.703 11.214,0.703 13.575,0 23.77,-3.32 30.59,-9.976 6.813,-6.645 10.219,-16.098 10.219,-28.352 v -57.715 h -16.723 l -5.711,10.567"
         style="fill:#254582;fill-opacity:1;fill-rule:nonzero;stroke:none"
         id="path18" />
      <path
         d="m 353.063,238.379 -38.274,-48 43.531,-49.383 h -29.511 l -40.25,48.719 V 140.996 H 265.09 v 131.703 h 23.469 v -82.984 l 35.851,48.664 h 28.653"
         style="fill:#254582;fill-opacity:1;fill-rule:nonzero;stroke:none"
         id="path20" />
      <path
         d="m 405.266,216.348 c -3.102,0 -5.926,-0.383 -8.465,-1.153 -2.528,-0.773 -4.738,-1.875 -6.633,-3.281 -1.902,-1.418 -3.457,-3.117 -4.672,-5.117 -1.203,-2.012 -2.035,-4.219 -2.5,-6.633 h 41.684 c 0,2.16 -0.387,4.231 -1.168,6.203 -0.774,1.981 -1.969,3.699 -3.586,5.156 -1.606,1.473 -3.633,2.637 -6.074,3.516 -2.45,0.867 -5.305,1.309 -8.586,1.309 m 4.398,-54.758 c 4.141,0 7.895,0.344 11.258,0.988 3.371,0.652 6.433,1.524 9.191,2.586 2.77,1.074 5.274,2.316 7.508,3.723 2.242,1.406 1.461,0.742 3.301,2.187 l 4.527,-20.734 c -4.144,-2.637 -10,-4.969 -15.898,-6.758 -5.895,-1.785 -12.602,-2.684 -20.141,-2.684 -8.226,0 -15.515,1.153 -21.832,3.446 -6.332,2.304 -11.672,5.527 -16.015,9.707 -4.336,4.172 -7.637,9.179 -9.879,15.051 -2.235,5.867 -3.364,12.363 -3.364,19.5 0,6.593 1.028,12.824 3.063,18.691 2.039,5.871 5.039,11.008 8.972,15.422 3.942,4.414 8.817,7.902 14.629,10.473 5.817,2.562 12.516,3.851 20.11,3.851 7.656,0 14.242,-1.219 19.804,-3.656 5.54,-2.442 10.122,-5.695 13.711,-9.746 3.602,-4.067 6.258,-8.727 7.993,-13.989 1.722,-5.265 2.359,-10.722 2.359,-16.378 0,-1.524 -0.094,-3.27 -0.266,-5.243 -0.172,-1.964 -0.394,-3.632 -0.687,-4.992 h -65.434 c 0.34,-3.308 1.203,-6.297 2.582,-8.926 1.383,-2.644 3.239,-4.882 5.567,-6.726 2.336,-1.856 5.093,-3.281 8.281,-4.278 3.191,-1.015 6.75,-1.515 10.66,-1.515"
         style="fill:#254582;fill-opacity:1;fill-rule:nonzero;stroke:none"
         id="path22" />
      <path
         d="m 886.152,223.34 31.707,37.738 h 6.954 v -24.125 h 27.101 v -20.89 h -27.101 v -39.325 c 0,-2.734 0.332,-5.019 1,-6.836 0.652,-1.816 1.57,-3.273 2.722,-4.367 1.145,-1.082 2.461,-1.855 3.953,-2.324 1.504,-0.449 3.086,-0.672 4.746,-0.672 3.11,0 5.864,0.293 8.246,0.899 2.391,0.585 4.508,1.347 6.344,2.234 v -20.906 c -2.539,-1.27 -5.191,-2.219 -7.976,-2.883 -2.793,-0.664 -6.203,-0.985 -10.235,-0.985 -5.691,0 -10.586,0.665 -14.66,2.02 -4.09,1.359 -7.43,3.301 -10.008,5.871 -2.605,2.586 -4.511,5.711 -5.742,9.383 -1.238,3.672 -1.863,7.844 -1.863,12.5 v 45.391 h -15.188 v 7.277"
         style="fill:#254582;fill-opacity:1;fill-rule:nonzero;stroke:none"
         id="path24" />
      <path
         d="m 991.934,217.176 c 3.164,5.754 8.836,11.289 13.526,14.722 4.68,3.426 10.31,5.141 16.86,5.141 2.24,0 4.08,-0.113 5.48,-0.332 1.41,-0.223 2.49,-0.437 3.24,-0.629 0,0 -0.75,-5.426 -4.31,-21.996 -1.45,0.313 -3.18,0.477 -5.19,0.477 -4.43,0 -8.38,-0.762 -11.86,-2.293 -3.48,-1.536 -6.43,-3.743 -8.84,-6.614 -2.41,-2.871 -4.27,-6.406 -5.567,-10.566 -1.296,-4.16 -1.945,-8.875 -1.945,-14.141 v -39.949 h -23.473 v 95.957 h 15.04 l 7.039,-19.777"
         style="fill:#254582;fill-opacity:1;fill-rule:nonzero;stroke:none"
         id="path26" />
      <path
         d="m 1137.72,216.063 c -2.98,0 -5.69,-0.438 -8.1,-1.336 -2.41,-0.879 -4.55,-2.032 -6.39,-3.45 -1.84,-1.406 -3.42,-3.027 -4.74,-4.832 -1.32,-1.789 -2.41,-3.644 -3.2,-5.527 v -27.246 c 0.92,-1.652 2.12,-3.203 3.58,-4.68 1.46,-1.472 3.11,-2.762 4.97,-3.875 1.83,-1.125 3.88,-2.012 6.16,-2.695 2.28,-0.676 4.71,-1.016 7.29,-1.016 3.97,0 7.42,0.653 10.32,1.953 2.9,1.278 5.31,3.094 7.24,5.418 1.93,2.325 3.36,5.118 4.28,8.391 0.92,3.262 1.38,6.863 1.38,10.82 0,4.11 -0.55,7.899 -1.65,11.348 -1.09,3.445 -2.63,6.394 -4.65,8.867 -2.02,2.469 -4.42,4.402 -7.21,5.781 -2.8,1.387 -5.88,2.079 -9.28,2.079 m 6.13,20.976 c 7.08,0 13.17,-1.351 18.25,-4.027 5.1,-2.692 9.31,-6.293 12.64,-10.797 3.34,-4.512 5.8,-9.707 7.38,-15.613 1.58,-5.879 2.37,-12.012 2.37,-18.352 0,-6.484 -0.83,-12.566 -2.5,-18.289 -1.67,-5.715 -4.18,-10.723 -7.55,-15.051 -3.37,-4.316 -7.55,-7.734 -12.56,-10.254 -5,-2.508 -10.86,-3.758 -17.6,-3.758 -6.56,0 -12.09,0.957 -16.61,2.872 -4.52,1.902 -8.47,4.714 -11.86,8.418 l -0.34,-0.196 V 102.234 H 1092 v 134.719 h 14.04 l 8.96,-11.691 c 3.4,3.476 8.23,6.851 12.93,8.824 4.7,1.973 9.99,2.953 15.92,2.953"
         style="fill:#254582;fill-opacity:1;fill-rule:nonzero;stroke:none"
         id="path28" />
      <path
         d="m 1055.21,276.445 c -6.77,0 -12.23,-5.476 -12.23,-12.234 0,-6.758 5.46,-12.234 12.23,-12.234 6.74,0 12.22,5.476 12.22,12.234 0,6.758 -5.48,12.234 -12.22,12.234 z m 11.72,-135.449 h -23.46 v 95.957 h 23.46 v -95.957"
         style="fill:#254582;fill-opacity:1;fill-rule:nonzero;stroke:none"
         id="path30" />
    </g>
  </g>
</svg>
