<svg xmlns="http://www.w3.org/2000/svg" width="18" height="16" fill="none"><path stroke="#486688" stroke-linecap="round" stroke-linejoin="round" stroke-width="1.5" d="M3 7.5V6a1 1 0 0 1 1-1h4a1 1 0 0 1 1 1v1.5M9 7.5V6a1 1 0 0 1 1-1h4a1 1 0 0 1 1 1v1.5M2.833 7.5h12.334A1.333 1.333 0 0 1 16.5 8.833V12h-15V8.833A1.333 1.333 0 0 1 2.833 7.5ZM1.5 12v2M16.5 12v2"/><path stroke="#486688" stroke-linecap="round" stroke-linejoin="round" stroke-width="1.5" d="M15 7.5V3a1 1 0 0 0-1-1H4a1 1 0 0 0-1 1v4.5"/></svg>
