<svg xmlns="http://www.w3.org/2000/svg" width="18" height="18" fill="none"><path stroke="#486688" stroke-linecap="round" stroke-linejoin="round" stroke-width="1.5" d="M10.167 10.5H16.5l-.44 2.667a4 4 0 0 1-3.947 3.333H5.887a4 4 0 0 1-3.947-3.333L1.5 10.5h3.667"/><path stroke="#486688" stroke-linecap="round" stroke-linejoin="round" stroke-width="1.5" d="M9.667 14.167h-4a.507.507 0 0 1-.5-.5V10.5a1 1 0 0 1 1-1h3a1 1 0 0 1 1 1v3.167a.507.507 0 0 1-.5.5ZM11.5 3.5a2 2 0 1 1 4 0v7"/><path stroke="#486688" stroke-linecap="round" stroke-linejoin="round" stroke-width="1.5" d="M9.5 5.5a2 2 0 1 1 4 0h-4Z"/></svg>
